<?xml version='1.0' encoding='utf-8'?>
<svg height="320.40mm" viewBox="0.0 0.0 420.40 320.40" width="420.40mm" xmlns="http://www.w3.org/2000/svg" xmlns:cc="http://creativecommons.org/ns#" xmlns:dc="http://purl.org/dc/elements/1.1/" xmlns:inkscape="http://www.inkscape.org/namespaces/inkscape" xmlns:rdf="http://www.w3.org/1999/02/22-rdf-syntax-ns#" xmlns:svg="http://www.w3.org/2000/svg" xmlns:xlink="http://www.w3.org/1999/xlink">
<!--
PuzzleBoxPart - One output sheet from the cat puzzle box or its sandpaper lining.

Created with Boxes.py (https://boxes.hackerspace-bamberg.de/)
Creation date: 2026-06-28 19:40:03
Command line (remove spaces between dashes): boxes PuzzleBoxPart - -thickness=10.0 - -burn=0.2 - -reference=0 - -labels=false
-->
<title>PuzzleBoxPart</title>
<metadata>
<rdf:RDF><cc:Work>
<dc:title>Misc - PuzzleBoxPart</dc:title>
<dc:date>2026-06-28 19:40:03</dc:date>
<dc:source>boxes PuzzleBoxPart --thickness=10.0 --burn=0.2 --format=svg --reference=0 --labels=false</dc:source>
<dc:description>One output sheet from the cat puzzle box or its sandpaper lining.

Created with Boxes.py (https://boxes.hackerspace-bamberg.de/)
Command line: boxes PuzzleBoxPart --thickness=10.0 --burn=0.2 --format=svg --reference=0 --labels=false
Command line short: boxes PuzzleBoxPart --thickness=10.0 --burn=0.2 --reference=0 --labels=false
</dc:description>
</cc:Work></rdf:RDF></metadata>
<g id="p-0" style="fill:none;stroke-linecap:round;stroke-linejoin:round;">
  <path d="M 20.200 300.400 H 40.000 C 40.200 300.400 40.000 300.200 40.000 300.400 V 310.200 C 40.000 310.310 40.090 310.400 40.200 310.400 H 60.200 C 60.310 310.400 60.400 310.310 60.400 310.200 V 300.400 C 60.400 300.200 60.200 300.400 60.400 300.400 H 80.000 C 80.200 300.400 80.000 300.200 80.000 300.400 V 310.200 C 80.000 310.310 80.090 310.400 80.200 310.400 H 100.200 C 100.310 310.400 100.400 310.310 100.400 310.200 V 300.400 C 100.400 300.200 100.200 300.400 100.400 300.400 H 120.000 C 120.200 300.400 120.000 300.200 120.000 300.400 V 310.200 C 120.000 310.310 120.090 310.400 120.200 310.400 H 140.200 C 140.310 310.400 140.400 310.310 140.400 310.200 V 300.400 C 140.400 300.200 140.200 300.400 140.400 300.400 H 160.000 C 160.200 300.400 160.000 300.200 160.000 300.400 V 310.200 C 160.000 310.310 160.090 310.400 160.200 310.400 H 180.200 C 180.310 310.400 180.400 310.310 180.400 310.200 V 300.400 C 180.400 300.200 180.200 300.400 180.400 300.400 H 200.000 C 200.200 300.400 200.000 300.200 200.000 300.400 V 310.200 C 200.000 310.310 200.090 310.400 200.200 310.400 H 220.200 C 220.310 310.400 220.400 310.310 220.400 310.200 V 300.400 C 220.400 300.200 220.200 300.400 220.400 300.400 H 240.000 C 240.200 300.400 240.000 300.200 240.000 300.400 V 310.200 C 240.000 310.310 240.090 310.400 240.200 310.400 H 260.200 C 260.310 310.400 260.400 310.310 260.400 310.200 V 300.400 C 260.400 300.200 260.200 300.400 260.400 300.400 H 280.000 C 280.200 300.400 280.000 300.200 280.000 300.400 V 310.200 C 280.000 310.310 280.090 310.400 280.200 310.400 H 300.200 C 300.310 310.400 300.400 310.310 300.400 310.200 V 300.400 C 300.400 300.200 300.200 300.400 300.400 300.400 H 320.000 C 320.200 300.400 320.000 300.200 320.000 300.400 V 310.200 C 320.000 310.310 320.090 310.400 320.200 310.400 H 340.200 C 340.310 310.400 340.400 310.310 340.400 310.200 V 300.400 C 340.400 300.200 340.200 300.400 340.400 300.400 H 360.000 C 360.200 300.400 360.000 300.200 360.000 300.400 V 310.200 C 360.000 310.310 360.090 310.400 360.200 310.400 H 380.200 C 380.310 310.400 380.400 310.310 380.400 310.200 V 300.400 C 380.400 300.200 380.200 300.400 380.400 300.400 H 400.200 C 400.310 300.400 400.400 300.310 400.400 300.200 V 270.400 C 400.400 270.200 400.200 270.400 400.400 270.400 H 410.200 C 410.310 270.400 410.400 270.310 410.400 270.200 V 250.200 C 410.400 250.090 410.310 250.000 410.200 250.000 H 400.400 C 400.200 250.000 400.400 250.200 400.400 250.000 V 230.400 C 400.400 230.200 400.200 230.400 400.400 230.400 H 410.200 C 410.310 230.400 410.400 230.310 410.400 230.200 V 210.200 C 410.400 210.090 410.310 210.000 410.200 210.000 H 400.400 C 400.200 210.000 400.400 210.200 400.400 210.000 V 190.400 C 400.400 190.200 400.200 190.400 400.400 190.400 H 410.200 C 410.310 190.400 410.400 190.310 410.400 190.200 V 170.200 C 410.400 170.090 410.310 170.000 410.200 170.000 H 400.400 C 400.200 170.000 400.400 170.200 400.400 170.000 V 150.400 C 400.400 150.200 400.200 150.400 400.400 150.400 H 410.200 C 410.310 150.400 410.400 150.310 410.400 150.200 V 130.200 C 410.400 130.090 410.310 130.000 410.200 130.000 H 400.400 C 400.200 130.000 400.400 130.200 400.400 130.000 V 110.400 C 400.400 110.200 400.200 110.400 400.400 110.400 H 410.200 C 410.310 110.400 410.400 110.310 410.400 110.200 V 90.200 C 410.400 90.090 410.310 90.000 410.200 90.000 H 400.400 C 400.200 90.000 400.400 90.200 400.400 90.000 V 70.400 C 400.400 70.200 400.200 70.400 400.400 70.400 H 410.200 C 410.310 70.400 410.400 70.310 410.400 70.200 V 50.200 C 410.400 50.090 410.310 50.000 410.200 50.000 H 400.400 C 400.200 50.000 400.400 50.200 400.400 50.000 V 20.200 C 400.400 20.090 400.310 20.000 400.200 20.000 H 380.400 C 380.200 20.000 380.400 20.200 380.400 20.000 V 10.200 C 380.400 10.090 380.310 10.000 380.200 10.000 H 360.200 C 360.090 10.000 360.000 10.090 360.000 10.200 V 20.000 C 360.000 20.200 360.200 20.000 360.000 20.000 H 340.400 C 340.200 20.000 340.400 20.200 340.400 20.000 V 10.200 C 340.400 10.090 340.310 10.000 340.200 10.000 H 320.200 C 320.090 10.000 320.000 10.090 320.000 10.200 V 20.000 C 320.000 20.200 320.200 20.000 320.000 20.000 H 300.400 C 300.200 20.000 300.400 20.200 300.400 20.000 V 10.200 C 300.400 10.090 300.310 10.000 300.200 10.000 H 280.200 C 280.090 10.000 280.000 10.090 280.000 10.200 V 20.000 C 280.000 20.200 280.200 20.000 280.000 20.000 H 260.400 C 260.200 20.000 260.400 20.200 260.400 20.000 V 10.200 C 260.400 10.090 260.310 10.000 260.200 10.000 H 240.200 C 240.090 10.000 240.000 10.090 240.000 10.200 V 20.000 C 240.000 20.200 240.200 20.000 240.000 20.000 H 220.400 C 220.200 20.000 220.400 20.200 220.400 20.000 V 10.200 C 220.400 10.090 220.310 10.000 220.200 10.000 H 200.200 C 200.090 10.000 200.000 10.090 200.000 10.200 V 20.000 C 200.000 20.200 200.200 20.000 200.000 20.000 H 180.400 C 180.200 20.000 180.400 20.200 180.400 20.000 V 10.200 C 180.400 10.090 180.310 10.000 180.200 10.000 H 160.200 C 160.090 10.000 160.000 10.090 160.000 10.200 V 20.000 C 160.000 20.200 160.200 20.000 160.000 20.000 H 140.400 C 140.200 20.000 140.400 20.200 140.400 20.000 V 10.200 C 140.400 10.090 140.310 10.000 140.200 10.000 H 120.200 C 120.090 10.000 120.000 10.090 120.000 10.200 V 20.000 C 120.000 20.200 120.200 20.000 120.000 20.000 H 100.400 C 100.200 20.000 100.400 20.200 100.400 20.000 V 10.200 C 100.400 10.090 100.310 10.000 100.200 10.000 H 80.200 C 80.090 10.000 80.000 10.090 80.000 10.200 V 20.000 C 80.000 20.200 80.200 20.000 80.000 20.000 H 60.400 C 60.200 20.000 60.400 20.200 60.400 20.000 V 10.200 C 60.400 10.090 60.310 10.000 60.200 10.000 H 40.200 C 40.090 10.000 40.000 10.090 40.000 10.200 V 20.000 C 40.000 20.200 40.200 20.000 40.000 20.000 H 20.200 C 20.090 20.000 20.000 20.090 20.000 20.200 V 50.000 C 20.000 50.200 20.200 50.000 20.000 50.000 H 10.200 C 10.090 50.000 10.000 50.090 10.000 50.200 V 70.200 C 10.000 70.310 10.090 70.400 10.200 70.400 H 20.000 C 20.200 70.400 20.000 70.200 20.000 70.400 V 90.000 C 20.000 90.200 20.200 90.000 20.000 90.000 H 10.200 C 10.090 90.000 10.000 90.090 10.000 90.200 V 110.200 C 10.000 110.310 10.090 110.400 10.200 110.400 H 20.000 C 20.200 110.400 20.000 110.200 20.000 110.400 V 130.000 C 20.000 130.200 20.200 130.000 20.000 130.000 H 10.200 C 10.090 130.000 10.000 130.090 10.000 130.200 V 150.200 C 10.000 150.310 10.090 150.400 10.200 150.400 H 20.000 C 20.200 150.400 20.000 150.200 20.000 150.400 V 170.000 C 20.000 170.200 20.200 170.000 20.000 170.000 H 10.200 C 10.090 170.000 10.000 170.090 10.000 170.200 V 190.200 C 10.000 190.310 10.090 190.400 10.200 190.400 H 20.000 C 20.200 190.400 20.000 190.200 20.000 190.400 V 210.000 C 20.000 210.200 20.200 210.000 20.000 210.000 H 10.200 C 10.090 210.000 10.000 210.090 10.000 210.200 V 230.200 C 10.000 230.310 10.090 230.400 10.200 230.400 H 20.000 C 20.200 230.400 20.000 230.200 20.000 230.400 V 250.000 C 20.000 250.200 20.200 250.000 20.000 250.000 H 10.200 C 10.090 250.000 10.000 250.090 10.000 250.200 V 270.200 C 10.000 270.310 10.090 270.400 10.200 270.400 H 20.000 C 20.200 270.400 20.000 270.200 20.000 270.400 V 300.200 C 20.000 300.310 20.090 300.400 20.200 300.400 Z" stroke="rgb(0,0,0)" stroke-width="0.40" />
</g>
</svg>