<?xml version='1.0' encoding='utf-8'?>
<svg height="274.20mm" viewBox="0.0 0.0 374.20 274.20" width="374.20mm" xmlns="http://www.w3.org/2000/svg" xmlns:cc="http://creativecommons.org/ns#" xmlns:dc="http://purl.org/dc/elements/1.1/" xmlns:inkscape="http://www.inkscape.org/namespaces/inkscape" xmlns:rdf="http://www.w3.org/1999/02/22-rdf-syntax-ns#" xmlns:svg="http://www.w3.org/2000/svg" xmlns:xlink="http://www.w3.org/1999/xlink">
<!--
SandpaperPart - 

Created with Boxes.py (https://boxes.hackerspace-bamberg.de/)
Creation date: 2026-06-29 18:03:41
Command line (remove spaces between dashes): boxes SandpaperPart - -thickness=10.0 - -reference=0 - -labels=false
-->
<title>SandpaperPart</title>
<metadata>
<rdf:RDF><cc:Work>
<dc:title>Misc - SandpaperPart</dc:title>
<dc:date>2026-06-29 18:03:41</dc:date>
<dc:source>boxes SandpaperPart --thickness=10.0 --burn=0.1 --format=svg --reference=0 --labels=false</dc:source>
<dc:description>

Created with Boxes.py (https://boxes.hackerspace-bamberg.de/)
Command line: boxes SandpaperPart --thickness=10.0 --burn=0.1 --format=svg --reference=0 --labels=false
Command line short: boxes SandpaperPart --thickness=10.0 --reference=0 --labels=false
</dc:description>
</cc:Work></rdf:RDF></metadata>
<g id="p-0" style="fill:none;stroke-linecap:round;stroke-linejoin:round;">
  <path d="M 83.517 53.652 C 83.517 59.342 81.881 64.911 78.805 69.698 C 75.729 74.484 71.342 78.286 66.167 80.649 C 60.991 83.013 55.245 83.839 49.613 83.029 C 43.982 82.220 38.701 79.808 34.401 76.082 C 30.101 72.356 26.963 67.473 25.360 62.014 C 23.757 56.554 23.757 50.750 25.360 45.290 C 26.963 39.831 30.101 34.948 34.401 31.222 C 38.701 27.496 43.982 25.084 49.613 24.275 C 55.245 23.465 60.991 24.291 66.167 26.655 C 71.342 29.018 75.729 32.820 78.805 37.606 C 81.881 42.392 83.517 47.962 83.517 53.652 Z" stroke="rgb(0,0,255)" stroke-width="0.20" />
  <path d="M 223.198 137.119 C 223.198 144.058 221.203 150.850 217.452 156.688 C 213.700 162.525 208.350 167.161 202.038 170.044 C 195.726 172.927 188.719 173.934 181.850 172.947 C 174.982 171.959 168.542 169.018 163.298 164.474 C 158.054 159.930 154.227 153.974 152.272 147.316 C 150.317 140.659 150.317 133.579 152.272 126.921 C 154.227 120.263 158.054 114.308 163.298 109.763 C 168.542 105.219 174.982 102.278 181.850 101.291 C 188.719 100.303 195.726 101.311 202.038 104.194 C 208.350 107.076 213.700 111.712 217.452 117.550 C 221.203 123.387 223.198 130.180 223.198 137.119 Z" stroke="rgb(0,0,255)" stroke-width="0.20" />
  <path d="M 125.037 137.119 C 125.037 141.505 123.777 145.798 121.406 149.487 C 119.034 153.177 115.653 156.107 111.663 157.929 C 107.674 159.751 103.245 160.388 98.904 159.764 C 94.563 159.140 90.492 157.281 87.178 154.409 C 83.863 151.537 81.444 147.772 80.209 143.564 C 78.973 139.356 78.973 134.881 80.209 130.673 C 81.444 126.465 83.863 122.701 87.178 119.829 C 90.492 116.957 94.563 115.098 98.904 114.474 C 103.245 113.850 107.674 114.487 111.663 116.308 C 115.653 118.130 119.034 121.061 121.406 124.750 C 123.777 128.440 125.037 132.733 125.037 137.119 Z" stroke="rgb(0,0,255)" stroke-width="0.20" />
  <path d="M 294.901 137.119 C 294.901 141.504 293.640 145.798 291.269 149.487 C 288.898 153.177 285.516 156.107 281.527 157.929 C 277.537 159.751 273.108 160.387 268.767 159.763 C 264.426 159.139 260.356 157.280 257.042 154.408 C 253.727 151.536 251.308 147.772 250.073 143.564 C 248.837 139.356 248.837 134.882 250.073 130.673 C 251.308 126.465 253.727 122.701 257.042 119.829 C 260.356 116.957 264.426 115.098 268.767 114.474 C 273.108 113.850 277.537 114.487 281.527 116.309 C 285.516 118.131 288.898 121.061 291.269 124.750 C 293.640 128.440 294.901 132.733 294.901 137.119 Z" stroke="rgb(0,0,255)" stroke-width="0.20" />
  <path d="M 157.052 73.619 C 157.052 78.005 155.791 82.298 153.420 85.987 C 151.049 89.677 147.667 92.607 143.678 94.429 C 139.689 96.251 135.259 96.888 130.918 96.264 C 126.577 95.640 122.507 93.781 119.192 90.909 C 115.878 88.037 113.459 84.272 112.223 80.064 C 110.988 75.856 110.988 71.381 112.223 67.173 C 113.459 62.965 115.878 59.201 119.192 56.329 C 122.507 53.457 126.577 51.598 130.918 50.974 C 135.259 50.350 139.689 50.987 143.678 52.808 C 147.667 54.630 151.049 57.561 153.420 61.250 C 155.791 64.940 157.052 69.233 157.052 73.619 Z" stroke="rgb(0,0,255)" stroke-width="0.20" />
  <path d="M 262.886 200.883 C 262.886 205.269 261.625 209.563 259.254 213.252 C 256.883 216.942 253.501 219.872 249.512 221.694 C 245.522 223.516 241.093 224.153 236.752 223.529 C 232.411 222.904 228.341 221.046 225.026 218.173 C 221.712 215.301 219.292 211.537 218.057 207.329 C 216.821 203.121 216.821 198.646 218.057 194.438 C 219.292 190.230 221.712 186.465 225.026 183.593 C 228.341 180.721 232.411 178.862 236.752 178.238 C 241.093 177.614 245.522 178.251 249.512 180.073 C 253.501 181.895 256.883 184.825 259.254 188.515 C 261.625 192.204 262.886 196.498 262.886 200.883 Z" stroke="rgb(0,0,255)" stroke-width="0.20" />
  <path d="M 349.952 220.604 C 349.952 226.294 348.317 231.864 345.241 236.650 C 342.165 241.437 337.778 245.238 332.602 247.602 C 327.426 249.965 321.681 250.792 316.049 249.982 C 310.417 249.172 305.136 246.761 300.836 243.035 C 296.536 239.309 293.398 234.425 291.795 228.966 C 290.192 223.507 290.192 217.702 291.795 212.242 C 293.398 206.783 296.536 201.900 300.836 198.174 C 305.136 194.448 310.417 192.036 316.049 191.226 C 321.681 190.417 327.426 191.243 332.602 193.606 C 337.778 195.970 342.165 199.771 345.241 204.558 C 348.317 209.344 349.952 214.914 349.952 220.604 Z" stroke="rgb(0,0,255)" stroke-width="0.20" />
  <path d="M 61.100 247.100 C 55.149 247.100 49.303 245.534 44.150 242.558 C 38.997 239.583 34.717 235.303 31.742 230.150 C 28.766 224.997 27.200 219.151 27.200 213.200 V 181.200 C 27.200 177.707 28.120 174.275 29.866 171.250 C 31.613 168.225 34.125 165.713 37.150 163.966 C 40.175 162.220 43.607 161.300 47.100 161.300 C 50.593 161.300 54.025 162.220 57.050 163.966 C 60.075 165.713 62.587 168.225 64.334 171.250 C 66.080 174.275 67.000 177.707 67.000 181.200 V 193.200 C 67.000 195.675 67.652 198.107 68.889 200.250 C 70.127 202.393 71.907 204.173 74.050 205.411 C 76.193 206.648 78.625 207.300 81.100 207.300 H 163.100 C 166.593 207.300 170.025 208.220 173.050 209.966 C 176.075 211.713 178.587 214.225 180.334 217.250 C 182.080 220.275 183.000 223.707 183.000 227.200 C 183.000 230.693 182.080 234.125 180.334 237.150 C 178.587 240.175 176.075 242.687 173.050 244.434 C 170.025 246.180 166.593 247.100 163.100 247.100 H 61.100 Z" stroke="rgb(0,0,255)" stroke-width="0.20" />
  <path d="M 313.100 27.100 C 319.051 27.100 324.897 28.666 330.050 31.642 C 335.203 34.617 339.483 38.897 342.458 44.050 C 345.434 49.203 347.000 55.049 347.000 61.000 V 93.000 C 347.000 96.493 346.080 99.925 344.334 102.950 C 342.587 105.975 340.075 108.487 337.050 110.234 C 334.025 111.980 330.593 112.900 327.100 112.900 C 323.607 112.900 320.175 111.980 317.150 110.234 C 314.125 108.487 311.613 105.975 309.866 102.950 C 308.120 99.925 307.200 96.493 307.200 93.000 V 81.000 C 307.200 78.525 306.548 76.093 305.311 73.950 C 304.073 71.807 302.293 70.027 300.150 68.789 C 298.007 67.552 295.575 66.900 293.100 66.900 H 211.100 C 207.607 66.900 204.175 65.980 201.150 64.234 C 198.125 62.487 195.613 59.975 193.866 56.950 C 192.120 53.925 191.200 50.493 191.200 47.000 C 191.200 43.507 192.120 40.075 193.866 37.050 C 195.613 34.025 198.125 31.513 201.150 29.766 C 204.175 28.020 207.607 27.100 211.100 27.100 H 313.100 Z" stroke="rgb(0,0,255)" stroke-width="0.20" />
  <path d="M 10.100 264.200 H 364.100 C 364.155 264.200 364.200 264.155 364.200 264.100 V 10.100 C 364.200 10.045 364.155 10.000 364.100 10.000 H 10.100 C 10.045 10.000 10.000 10.045 10.000 10.100 V 264.100 C 10.000 264.155 10.045 264.200 10.100 264.200 Z" stroke="rgb(0,0,0)" stroke-width="0.20" />
</g>
</svg>