<?xml version='1.0' encoding='utf-8'?>
<svg height="173.40mm" viewBox="0.0 0.0 633.40 173.40" width="633.40mm" xmlns="http://www.w3.org/2000/svg" xmlns:cc="http://creativecommons.org/ns#" xmlns:dc="http://purl.org/dc/elements/1.1/" xmlns:inkscape="http://www.inkscape.org/namespaces/inkscape" xmlns:rdf="http://www.w3.org/1999/02/22-rdf-syntax-ns#" xmlns:svg="http://www.w3.org/2000/svg" xmlns:xlink="http://www.w3.org/1999/xlink">
<!--
SandpaperPart - 

Created with Boxes.py (https://boxes.hackerspace-bamberg.de/)
Creation date: 2026-06-29 18:03:42
Command line (remove spaces between dashes): boxes SandpaperPart - -thickness=10.0 - -reference=0 - -labels=false
-->
<title>SandpaperPart</title>
<metadata>
<rdf:RDF><cc:Work>
<dc:title>Misc - SandpaperPart</dc:title>
<dc:date>2026-06-29 18:03:42</dc:date>
<dc:source>boxes SandpaperPart --thickness=10.0 --burn=0.1 --format=svg --reference=0 --labels=false</dc:source>
<dc:description>

Created with Boxes.py (https://boxes.hackerspace-bamberg.de/)
Command line: boxes SandpaperPart --thickness=10.0 --burn=0.1 --format=svg --reference=0 --labels=false
Command line short: boxes SandpaperPart --thickness=10.0 --reference=0 --labels=false
</dc:description>
</cc:Work></rdf:RDF></metadata>
<g id="p-0" style="fill:none;stroke-linecap:round;stroke-linejoin:round;">
  <path d="M 80.000 126.300 C 80.000 129.923 78.959 133.470 77.000 136.518 C 75.041 139.566 72.247 141.987 68.951 143.492 C 65.656 144.997 61.997 145.523 58.410 145.008 C 54.824 144.492 51.461 142.956 48.723 140.584 C 45.985 138.211 43.986 135.101 42.966 131.625 C 41.945 128.148 41.945 124.452 42.966 120.975 C 43.986 117.499 45.985 114.389 48.723 112.016 C 51.461 109.644 54.824 108.108 58.410 107.592 C 61.997 107.077 65.656 107.603 68.951 109.108 C 72.247 110.613 75.041 113.034 77.000 116.082 C 78.959 119.130 80.000 122.677 80.000 126.300 Z" stroke="rgb(0,0,255)" stroke-width="0.20" />
  <path d="M 137.200 126.300 C 137.200 129.156 136.379 131.953 134.835 134.356 C 133.290 136.759 131.088 138.667 128.490 139.854 C 125.891 141.040 123.007 141.455 120.180 141.048 C 117.352 140.642 114.701 139.431 112.543 137.561 C 110.384 135.690 108.808 133.239 108.004 130.498 C 107.199 127.757 107.199 124.843 108.004 122.102 C 108.808 119.361 110.384 116.910 112.543 115.039 C 114.701 113.169 117.352 111.958 120.180 111.552 C 123.007 111.145 125.891 111.560 128.490 112.746 C 131.088 113.933 133.290 115.841 134.835 118.244 C 136.379 120.647 137.200 123.444 137.200 126.300 Z" stroke="rgb(0,0,255)" stroke-width="0.20" />
  <path d="M 208.000 126.300 C 208.000 130.307 206.848 134.229 204.682 137.599 C 202.516 140.970 199.427 143.647 195.782 145.311 C 192.138 146.976 188.091 147.557 184.126 146.987 C 180.160 146.417 176.441 144.719 173.413 142.095 C 170.385 139.471 168.175 136.033 167.047 132.188 C 165.918 128.344 165.918 124.256 167.047 120.412 C 168.175 116.567 170.385 113.129 173.413 110.505 C 176.441 107.881 180.160 106.183 184.126 105.613 C 188.091 105.043 192.138 105.624 195.782 107.289 C 199.427 108.953 202.516 111.630 204.682 115.001 C 206.848 118.371 208.000 122.293 208.000 126.300 Z" stroke="rgb(0,0,255)" stroke-width="0.20" />
  <path d="M 266.800 126.300 C 266.800 129.156 265.979 131.953 264.435 134.356 C 262.890 136.759 260.688 138.667 258.090 139.854 C 255.491 141.040 252.607 141.455 249.780 141.048 C 246.952 140.642 244.301 139.431 242.143 137.561 C 239.984 135.690 238.408 133.239 237.604 130.498 C 236.799 127.757 236.799 124.843 237.604 122.102 C 238.408 119.361 239.984 116.910 242.143 115.039 C 244.301 113.169 246.952 111.958 249.780 111.552 C 252.607 111.145 255.491 111.560 258.090 112.746 C 260.688 113.933 262.890 115.841 264.435 118.244 C 265.979 120.647 266.800 123.444 266.800 126.300 Z" stroke="rgb(0,0,255)" stroke-width="0.20" />
  <path d="M 332.000 126.300 C 332.000 129.923 330.959 133.470 329.000 136.518 C 327.041 139.566 324.247 141.987 320.951 143.492 C 317.656 144.997 313.997 145.523 310.410 145.008 C 306.824 144.492 303.461 142.956 300.723 140.584 C 297.985 138.211 295.986 135.101 294.966 131.625 C 293.945 128.148 293.945 124.452 294.966 120.975 C 295.986 117.499 297.985 114.389 300.723 112.016 C 303.461 109.644 306.824 108.108 310.410 107.592 C 313.997 107.077 317.656 107.603 320.951 109.108 C 324.247 110.613 327.041 113.034 329.000 116.082 C 330.959 119.130 332.000 122.677 332.000 126.300 Z" stroke="rgb(0,0,255)" stroke-width="0.20" />
  <path d="M 10.100 163.400 H 364.100 C 364.155 163.400 364.200 163.355 364.200 163.300 V 89.300 C 364.200 89.245 364.155 89.200 364.100 89.200 H 10.100 C 10.045 89.200 10.000 89.245 10.000 89.300 V 163.300 C 10.000 163.355 10.045 163.400 10.100 163.400 Z" stroke="rgb(0,0,0)" stroke-width="0.20" />
</g>
<g id="p-1" style="fill:none;stroke-linecap:round;stroke-linejoin:round;">
  <path d="M 431.000 126.300 C 431.000 129.732 430.014 133.091 428.158 135.977 C 426.303 138.864 423.657 141.157 420.536 142.582 C 417.415 144.008 413.949 144.506 410.553 144.018 C 407.156 143.529 403.971 142.075 401.378 139.828 C 398.785 137.581 396.892 134.636 395.925 131.343 C 394.958 128.051 394.958 124.549 395.925 121.257 C 396.892 117.964 398.785 115.019 401.378 112.772 C 403.971 110.525 407.156 109.071 410.553 108.582 C 413.949 108.094 417.415 108.592 420.536 110.018 C 423.657 111.443 426.303 113.736 428.158 116.623 C 430.014 119.509 431.000 122.868 431.000 126.300 Z" stroke="rgb(0,0,255)" stroke-width="0.20" />
  <path d="M 479.000 126.300 C 479.000 128.965 478.234 131.573 476.793 133.815 C 475.353 136.057 473.298 137.837 470.874 138.944 C 468.450 140.051 465.759 140.438 463.122 140.059 C 460.484 139.679 458.011 138.550 455.997 136.805 C 453.984 135.060 452.514 132.773 451.763 130.216 C 451.012 127.659 451.012 124.941 451.763 122.384 C 452.514 119.827 453.984 117.540 455.997 115.795 C 458.011 114.050 460.484 112.921 463.122 112.541 C 465.759 112.162 468.450 112.549 470.874 113.656 C 473.298 114.763 475.353 116.543 476.793 118.785 C 478.234 121.027 479.000 123.635 479.000 126.300 Z" stroke="rgb(0,0,255)" stroke-width="0.20" />
  <path d="M 537.000 126.300 C 537.000 130.115 535.903 133.849 533.841 137.059 C 531.778 140.268 528.837 142.817 525.367 144.402 C 521.897 145.986 518.044 146.540 514.268 145.997 C 510.492 145.455 506.951 143.838 504.068 141.339 C 501.185 138.841 499.081 135.567 498.006 131.906 C 496.931 128.246 496.931 124.354 498.006 120.694 C 499.081 117.033 501.185 113.759 504.068 111.261 C 506.951 108.762 510.492 107.145 514.268 106.603 C 518.044 106.060 521.897 106.614 525.367 108.198 C 528.837 109.783 531.778 112.332 533.841 115.541 C 535.903 118.751 537.000 122.485 537.000 126.300 Z" stroke="rgb(0,0,255)" stroke-width="0.20" />
  <path d="M 590.200 126.300 C 590.200 129.348 589.324 132.332 587.676 134.896 C 586.028 137.460 583.678 139.497 580.905 140.763 C 578.132 142.029 575.054 142.472 572.037 142.038 C 569.020 141.604 566.191 140.312 563.888 138.316 C 561.584 136.320 559.903 133.704 559.044 130.780 C 558.185 127.855 558.185 124.745 559.044 121.820 C 559.903 118.896 561.584 116.280 563.888 114.284 C 566.191 112.288 569.020 110.996 572.037 110.562 C 575.054 110.128 578.132 110.571 580.905 111.837 C 583.678 113.103 586.028 115.140 587.676 117.704 C 589.324 120.268 590.200 123.252 590.200 126.300 Z" stroke="rgb(0,0,255)" stroke-width="0.20" />
  <path d="M 369.300 163.400 H 623.300 C 623.355 163.400 623.400 163.355 623.400 163.300 V 89.300 C 623.400 89.245 623.355 89.200 623.300 89.200 H 369.300 C 369.245 89.200 369.200 89.245 369.200 89.300 V 163.300 C 369.200 163.355 369.245 163.400 369.300 163.400 Z" stroke="rgb(0,0,0)" stroke-width="0.20" />
</g>
<g id="p-2" style="fill:none;stroke-linecap:round;stroke-linejoin:round;">
  <path d="M 431.000 47.100 C 431.000 50.532 430.014 53.891 428.158 56.777 C 426.303 59.664 423.657 61.957 420.536 63.382 C 417.415 64.808 413.949 65.306 410.553 64.818 C 407.156 64.329 403.971 62.875 401.378 60.628 C 398.785 58.381 396.892 55.436 395.925 52.143 C 394.958 48.851 394.958 45.349 395.925 42.057 C 396.892 38.764 398.785 35.819 401.378 33.572 C 403.971 31.325 407.156 29.871 410.553 29.382 C 413.949 28.894 417.415 29.392 420.536 30.818 C 423.657 32.243 426.303 34.536 428.158 37.423 C 430.014 40.309 431.000 43.668 431.000 47.100 Z" stroke="rgb(0,0,255)" stroke-width="0.20" />
  <path d="M 479.000 47.100 C 479.000 49.765 478.234 52.373 476.793 54.615 C 475.353 56.857 473.298 58.637 470.874 59.744 C 468.450 60.851 465.759 61.238 463.122 60.859 C 460.484 60.479 458.011 59.350 455.997 57.605 C 453.984 55.860 452.514 53.573 451.763 51.016 C 451.012 48.459 451.012 45.741 451.763 43.184 C 452.514 40.627 453.984 38.340 455.997 36.595 C 458.011 34.850 460.484 33.721 463.122 33.341 C 465.759 32.962 468.450 33.349 470.874 34.456 C 473.298 35.563 475.353 37.343 476.793 39.585 C 478.234 41.827 479.000 44.435 479.000 47.100 Z" stroke="rgb(0,0,255)" stroke-width="0.20" />
  <path d="M 537.000 47.100 C 537.000 50.915 535.903 54.649 533.841 57.859 C 531.778 61.068 528.837 63.617 525.367 65.202 C 521.897 66.786 518.044 67.340 514.268 66.797 C 510.492 66.255 506.951 64.638 504.068 62.139 C 501.185 59.641 499.081 56.367 498.006 52.706 C 496.931 49.046 496.931 45.154 498.006 41.494 C 499.081 37.833 501.185 34.559 504.068 32.061 C 506.951 29.562 510.492 27.945 514.268 27.403 C 518.044 26.860 521.897 27.414 525.367 28.998 C 528.837 30.583 531.778 33.132 533.841 36.341 C 535.903 39.551 537.000 43.285 537.000 47.100 Z" stroke="rgb(0,0,255)" stroke-width="0.20" />
  <path d="M 590.200 47.100 C 590.200 50.148 589.324 53.132 587.676 55.696 C 586.028 58.260 583.678 60.297 580.905 61.563 C 578.132 62.829 575.054 63.272 572.037 62.838 C 569.020 62.404 566.191 61.112 563.888 59.116 C 561.584 57.120 559.903 54.504 559.044 51.580 C 558.185 48.655 558.185 45.545 559.044 42.620 C 559.903 39.696 561.584 37.080 563.888 35.084 C 566.191 33.088 569.020 31.796 572.037 31.362 C 575.054 30.928 578.132 31.371 580.905 32.637 C 583.678 33.903 586.028 35.940 587.676 38.504 C 589.324 41.068 590.200 44.052 590.200 47.100 Z" stroke="rgb(0,0,255)" stroke-width="0.20" />
  <path d="M 369.300 84.200 H 623.300 C 623.355 84.200 623.400 84.155 623.400 84.100 V 10.100 C 623.400 10.045 623.355 10.000 623.300 10.000 H 369.300 C 369.245 10.000 369.200 10.045 369.200 10.100 V 84.100 C 369.200 84.155 369.245 84.200 369.300 84.200 Z" stroke="rgb(0,0,0)" stroke-width="0.20" />
</g>
<g id="p-3" style="fill:none;stroke-linecap:round;stroke-linejoin:round;">
  <path d="M 80.000 47.100 C 80.000 50.723 78.959 54.270 77.000 57.318 C 75.041 60.366 72.247 62.787 68.951 64.292 C 65.656 65.797 61.997 66.323 58.410 65.808 C 54.824 65.292 51.461 63.756 48.723 61.384 C 45.985 59.011 43.986 55.901 42.966 52.425 C 41.945 48.948 41.945 45.252 42.966 41.775 C 43.986 38.299 45.985 35.189 48.723 32.816 C 51.461 30.444 54.824 28.908 58.410 28.392 C 61.997 27.877 65.656 28.403 68.951 29.908 C 72.247 31.413 75.041 33.834 77.000 36.882 C 78.959 39.930 80.000 43.477 80.000 47.100 Z" stroke="rgb(0,0,255)" stroke-width="0.20" />
  <path d="M 137.200 47.100 C 137.200 49.956 136.379 52.753 134.835 55.156 C 133.290 57.559 131.088 59.467 128.490 60.654 C 125.891 61.840 123.007 62.255 120.180 61.848 C 117.352 61.442 114.701 60.231 112.543 58.361 C 110.384 56.490 108.808 54.039 108.004 51.298 C 107.199 48.557 107.199 45.643 108.004 42.902 C 108.808 40.161 110.384 37.710 112.543 35.839 C 114.701 33.969 117.352 32.758 120.180 32.352 C 123.007 31.945 125.891 32.360 128.490 33.546 C 131.088 34.733 133.290 36.641 134.835 39.044 C 136.379 41.447 137.200 44.244 137.200 47.100 Z" stroke="rgb(0,0,255)" stroke-width="0.20" />
  <path d="M 208.000 47.100 C 208.000 51.107 206.848 55.029 204.682 58.399 C 202.516 61.770 199.427 64.447 195.782 66.111 C 192.138 67.776 188.091 68.357 184.126 67.787 C 180.160 67.217 176.441 65.519 173.413 62.895 C 170.385 60.271 168.175 56.833 167.047 52.988 C 165.918 49.144 165.918 45.056 167.047 41.212 C 168.175 37.367 170.385 33.929 173.413 31.305 C 176.441 28.681 180.160 26.983 184.126 26.413 C 188.091 25.843 192.138 26.424 195.782 28.089 C 199.427 29.753 202.516 32.430 204.682 35.801 C 206.848 39.171 208.000 43.093 208.000 47.100 Z" stroke="rgb(0,0,255)" stroke-width="0.20" />
  <path d="M 266.800 47.100 C 266.800 49.956 265.979 52.753 264.435 55.156 C 262.890 57.559 260.688 59.467 258.090 60.654 C 255.491 61.840 252.607 62.255 249.780 61.848 C 246.952 61.442 244.301 60.231 242.143 58.361 C 239.984 56.490 238.408 54.039 237.604 51.298 C 236.799 48.557 236.799 45.643 237.604 42.902 C 238.408 40.161 239.984 37.710 242.143 35.839 C 244.301 33.969 246.952 32.758 249.780 32.352 C 252.607 31.945 255.491 32.360 258.090 33.546 C 260.688 34.733 262.890 36.641 264.435 39.044 C 265.979 41.447 266.800 44.244 266.800 47.100 Z" stroke="rgb(0,0,255)" stroke-width="0.20" />
  <path d="M 332.000 47.100 C 332.000 50.723 330.959 54.270 329.000 57.318 C 327.041 60.366 324.247 62.787 320.951 64.292 C 317.656 65.797 313.997 66.323 310.410 65.808 C 306.824 65.292 303.461 63.756 300.723 61.384 C 297.985 59.011 295.986 55.901 294.966 52.425 C 293.945 48.948 293.945 45.252 294.966 41.775 C 295.986 38.299 297.985 35.189 300.723 32.816 C 303.461 30.444 306.824 28.908 310.410 28.392 C 313.997 27.877 317.656 28.403 320.951 29.908 C 324.247 31.413 327.041 33.834 329.000 36.882 C 330.959 39.930 332.000 43.477 332.000 47.100 Z" stroke="rgb(0,0,255)" stroke-width="0.20" />
  <path d="M 10.100 84.200 H 364.100 C 364.155 84.200 364.200 84.155 364.200 84.100 V 10.100 C 364.200 10.045 364.155 10.000 364.100 10.000 H 10.100 C 10.045 10.000 10.000 10.045 10.000 10.100 V 84.100 C 10.000 84.155 10.045 84.200 10.100 84.200 Z" stroke="rgb(0,0,0)" stroke-width="0.20" />
</g>
</svg>