<?xml version='1.0' encoding='utf-8'?>
<svg height="225.80mm" viewBox="0.0 0.0 725.80 225.80" width="725.80mm" xmlns="http://www.w3.org/2000/svg" xmlns:cc="http://creativecommons.org/ns#" xmlns:dc="http://purl.org/dc/elements/1.1/" xmlns:inkscape="http://www.inkscape.org/namespaces/inkscape" xmlns:rdf="http://www.w3.org/1999/02/22-rdf-syntax-ns#" xmlns:svg="http://www.w3.org/2000/svg" xmlns:xlink="http://www.w3.org/1999/xlink">
<!--
PuzzleBoxPart - One output sheet from the cat puzzle box or its sandpaper lining.

Created with Boxes.py (https://boxes.hackerspace-bamberg.de/)
Creation date: 2026-06-28 19:40:03
Command line (remove spaces between dashes): boxes PuzzleBoxPart - -thickness=10.0 - -burn=0.2 - -reference=0 - -labels=false
-->
<title>PuzzleBoxPart</title>
<metadata>
<rdf:RDF><cc:Work>
<dc:title>Misc - PuzzleBoxPart</dc:title>
<dc:date>2026-06-28 19:40:03</dc:date>
<dc:source>boxes PuzzleBoxPart --thickness=10.0 --burn=0.2 --format=svg --reference=0 --labels=false</dc:source>
<dc:description>One output sheet from the cat puzzle box or its sandpaper lining.

Created with Boxes.py (https://boxes.hackerspace-bamberg.de/)
Command line: boxes PuzzleBoxPart --thickness=10.0 --burn=0.2 --format=svg --reference=0 --labels=false
Command line short: boxes PuzzleBoxPart --thickness=10.0 --burn=0.2 --reference=0 --labels=false
</dc:description>
</cc:Work></rdf:RDF></metadata>
<g id="p-0" style="fill:none;stroke-linecap:round;stroke-linejoin:round;">
  <path d="M 93.000 165.600 C 93.000 168.629 92.129 171.594 90.492 174.142 C 88.854 176.690 86.519 178.714 83.764 179.972 C 81.008 181.230 77.950 181.670 74.951 181.239 C 71.953 180.808 69.142 179.524 66.853 177.541 C 64.564 175.557 62.893 172.958 62.040 170.051 C 61.187 167.145 61.187 164.055 62.040 161.149 C 62.893 158.242 64.564 155.643 66.853 153.659 C 69.142 151.676 71.953 150.392 74.951 149.961 C 77.950 149.530 81.008 149.970 83.764 151.228 C 86.519 152.486 88.854 154.510 90.492 157.058 C 92.129 159.606 93.000 162.571 93.000 165.600 Z" stroke="rgb(0,0,255)" stroke-width="0.40" />
  <path d="M 153.600 165.600 C 153.600 167.862 152.950 170.077 151.727 171.980 C 150.504 173.883 148.760 175.394 146.702 176.334 C 144.644 177.273 142.360 177.602 140.121 177.280 C 137.882 176.958 135.782 175.999 134.073 174.518 C 132.363 173.036 131.115 171.095 130.478 168.924 C 129.841 166.754 129.841 164.446 130.478 162.276 C 131.115 160.105 132.363 158.164 134.073 156.682 C 135.782 155.201 137.882 154.242 140.121 153.920 C 142.360 153.598 144.644 153.927 146.702 154.866 C 148.760 155.806 150.504 157.317 151.727 159.220 C 152.950 161.123 153.600 163.338 153.600 165.600 Z" stroke="rgb(0,0,255)" stroke-width="0.40" />
  <path d="M 228.000 165.600 C 228.000 169.012 227.019 172.353 225.174 175.223 C 223.329 178.094 220.698 180.374 217.594 181.791 C 214.490 183.209 211.044 183.704 207.667 183.219 C 204.289 182.733 201.122 181.287 198.543 179.052 C 195.965 176.818 194.082 173.889 193.121 170.615 C 192.160 167.341 192.160 163.859 193.121 160.585 C 194.082 157.311 195.965 154.382 198.543 152.148 C 201.122 149.913 204.289 148.467 207.667 147.981 C 211.044 147.496 214.490 147.991 217.594 149.409 C 220.698 150.826 223.329 153.106 225.174 155.977 C 227.019 158.847 228.000 162.188 228.000 165.600 Z" stroke="rgb(0,0,255)" stroke-width="0.40" />
  <path d="M 290.400 165.600 C 290.400 167.862 289.750 170.077 288.527 171.980 C 287.304 173.883 285.560 175.394 283.502 176.334 C 281.444 177.273 279.160 177.602 276.921 177.280 C 274.682 176.958 272.582 175.999 270.873 174.518 C 269.163 173.036 267.915 171.095 267.278 168.924 C 266.641 166.754 266.641 164.446 267.278 162.276 C 267.915 160.105 269.163 158.164 270.873 156.682 C 272.582 155.201 274.682 154.242 276.921 153.920 C 279.160 153.598 281.444 153.927 283.502 154.866 C 285.560 155.806 287.304 157.317 288.527 159.220 C 289.750 161.123 290.400 163.338 290.400 165.600 Z" stroke="rgb(0,0,255)" stroke-width="0.40" />
  <path d="M 359.000 165.600 C 359.000 168.629 358.129 171.594 356.492 174.142 C 354.854 176.690 352.519 178.714 349.764 179.972 C 347.008 181.230 343.950 181.670 340.951 181.239 C 337.953 180.808 335.142 179.524 332.853 177.541 C 330.564 175.557 328.893 172.958 328.040 170.051 C 327.187 167.145 327.187 164.055 328.040 161.149 C 328.893 158.242 330.564 155.643 332.853 153.659 C 335.142 151.676 337.953 150.392 340.951 149.961 C 343.950 149.530 347.008 149.970 349.764 151.228 C 352.519 152.486 354.854 154.510 356.492 157.058 C 358.129 159.606 359.000 162.571 359.000 165.600 Z" stroke="rgb(0,0,255)" stroke-width="0.40" />
  <path d="M 20.200 215.800 H 40.200 C 40.310 215.800 40.400 215.710 40.400 215.600 V 205.800 C 40.400 205.600 40.200 205.800 40.400 205.800 H 60.000 C 60.200 205.800 60.000 205.600 60.000 205.800 V 215.600 C 60.000 215.710 60.090 215.800 60.200 215.800 H 80.200 C 80.310 215.800 80.400 215.710 80.400 215.600 V 205.800 C 80.400 205.600 80.200 205.800 80.400 205.800 H 100.000 C 100.200 205.800 100.000 205.600 100.000 205.800 V 215.600 C 100.000 215.710 100.090 215.800 100.200 215.800 H 120.200 C 120.310 215.800 120.400 215.710 120.400 215.600 V 205.800 C 120.400 205.600 120.200 205.800 120.400 205.800 H 140.000 C 140.200 205.800 140.000 205.600 140.000 205.800 V 215.600 C 140.000 215.710 140.090 215.800 140.200 215.800 H 160.200 C 160.310 215.800 160.400 215.710 160.400 215.600 V 205.800 C 160.400 205.600 160.200 205.800 160.400 205.800 H 180.000 C 180.200 205.800 180.000 205.600 180.000 205.800 V 215.600 C 180.000 215.710 180.090 215.800 180.200 215.800 H 200.200 C 200.310 215.800 200.400 215.710 200.400 215.600 V 205.800 C 200.400 205.600 200.200 205.800 200.400 205.800 H 220.000 C 220.200 205.800 220.000 205.600 220.000 205.800 V 215.600 C 220.000 215.710 220.090 215.800 220.200 215.800 H 240.200 C 240.310 215.800 240.400 215.710 240.400 215.600 V 205.800 C 240.400 205.600 240.200 205.800 240.400 205.800 H 260.000 C 260.200 205.800 260.000 205.600 260.000 205.800 V 215.600 C 260.000 215.710 260.090 215.800 260.200 215.800 H 280.200 C 280.310 215.800 280.400 215.710 280.400 215.600 V 205.800 C 280.400 205.600 280.200 205.800 280.400 205.800 H 300.000 C 300.200 205.800 300.000 205.600 300.000 205.800 V 215.600 C 300.000 215.710 300.090 215.800 300.200 215.800 H 320.200 C 320.310 215.800 320.400 215.710 320.400 215.600 V 205.800 C 320.400 205.600 320.200 205.800 320.400 205.800 H 340.000 C 340.200 205.800 340.000 205.600 340.000 205.800 V 215.600 C 340.000 215.710 340.090 215.800 340.200 215.800 H 360.200 C 360.310 215.800 360.400 215.710 360.400 215.600 V 205.800 C 360.400 205.600 360.200 205.800 360.400 205.800 H 380.000 C 380.200 205.800 380.000 205.600 380.000 205.800 V 215.600 C 380.000 215.710 380.090 215.800 380.200 215.800 H 400.200 H 410.200 C 410.310 215.800 410.400 215.710 410.400 215.600 V 205.600 V 175.600 C 410.400 175.490 410.310 175.400 410.200 175.400 H 400.400 C 400.200 175.400 400.400 175.600 400.400 175.400 V 155.800 C 400.400 155.600 400.200 155.800 400.400 155.800 H 410.200 C 410.310 155.800 410.400 155.710 410.400 155.600 V 125.600 V 115.600 C 410.400 115.490 410.310 115.400 410.200 115.400 H 400.200 H 380.200 C 380.090 115.400 380.000 115.490 380.000 115.600 V 125.400 C 380.000 125.600 380.200 125.400 380.000 125.400 H 360.400 C 360.200 125.400 360.400 125.600 360.400 125.400 V 115.600 C 360.400 115.490 360.310 115.400 360.200 115.400 H 340.200 C 340.090 115.400 340.000 115.490 340.000 115.600 V 125.400 C 340.000 125.600 340.200 125.400 340.000 125.400 H 320.400 C 320.200 125.400 320.400 125.600 320.400 125.400 V 115.600 C 320.400 115.490 320.310 115.400 320.200 115.400 H 300.200 C 300.090 115.400 300.000 115.490 300.000 115.600 V 125.400 C 300.000 125.600 300.200 125.400 300.000 125.400 H 280.400 C 280.200 125.400 280.400 125.600 280.400 125.400 V 115.600 C 280.400 115.490 280.310 115.400 280.200 115.400 H 260.200 C 260.090 115.400 260.000 115.490 260.000 115.600 V 125.400 C 260.000 125.600 260.200 125.400 260.000 125.400 H 240.400 C 240.200 125.400 240.400 125.600 240.400 125.400 V 115.600 C 240.400 115.490 240.310 115.400 240.200 115.400 H 220.200 C 220.090 115.400 220.000 115.490 220.000 115.600 V 125.400 C 220.000 125.600 220.200 125.400 220.000 125.400 H 200.400 C 200.200 125.400 200.400 125.600 200.400 125.400 V 115.600 C 200.400 115.490 200.310 115.400 200.200 115.400 H 180.200 C 180.090 115.400 180.000 115.490 180.000 115.600 V 125.400 C 180.000 125.600 180.200 125.400 180.000 125.400 H 160.400 C 160.200 125.400 160.400 125.600 160.400 125.400 V 115.600 C 160.400 115.490 160.310 115.400 160.200 115.400 H 140.200 C 140.090 115.400 140.000 115.490 140.000 115.600 V 125.400 C 140.000 125.600 140.200 125.400 140.000 125.400 H 120.400 C 120.200 125.400 120.400 125.600 120.400 125.400 V 115.600 C 120.400 115.490 120.310 115.400 120.200 115.400 H 100.200 C 100.090 115.400 100.000 115.490 100.000 115.600 V 125.400 C 100.000 125.600 100.200 125.400 100.000 125.400 H 80.400 C 80.200 125.400 80.400 125.600 80.400 125.400 V 115.600 C 80.400 115.490 80.310 115.400 80.200 115.400 H 60.200 C 60.090 115.400 60.000 115.490 60.000 115.600 V 125.400 C 60.000 125.600 60.200 125.400 60.000 125.400 H 40.400 C 40.200 125.400 40.400 125.600 40.400 125.400 V 115.600 C 40.400 115.490 40.310 115.400 40.200 115.400 H 20.200 H 10.200 C 10.090 115.400 10.000 115.490 10.000 115.600 V 125.600 V 155.600 C 10.000 155.710 10.090 155.800 10.200 155.800 H 20.000 C 20.200 155.800 20.000 155.600 20.000 155.800 V 175.400 C 20.000 175.600 20.200 175.400 20.000 175.400 H 10.200 C 10.090 175.400 10.000 175.490 10.000 175.600 V 205.600 V 215.600 C 10.000 215.710 10.090 215.800 10.200 215.800 H 20.200 Z" stroke="rgb(0,0,0)" stroke-width="0.40" />
</g>
<g id="p-1" style="fill:none;stroke-linecap:round;stroke-linejoin:round;">
  <path d="M 490.800 165.600 C 490.800 168.437 489.984 171.215 488.451 173.601 C 486.917 175.988 484.729 177.884 482.148 179.063 C 479.567 180.241 476.702 180.653 473.894 180.249 C 471.085 179.846 468.452 178.643 466.308 176.785 C 464.164 174.927 462.599 172.492 461.800 169.770 C 461.000 167.047 461.000 164.153 461.800 161.430 C 462.599 158.708 464.164 156.273 466.308 154.415 C 468.452 152.557 471.085 151.354 473.894 150.951 C 476.702 150.547 479.567 150.959 482.148 152.137 C 484.729 153.316 486.917 155.212 488.451 157.599 C 489.984 159.985 490.800 162.763 490.800 165.600 Z" stroke="rgb(0,0,255)" stroke-width="0.40" />
  <path d="M 542.800 165.600 C 542.800 167.670 542.205 169.697 541.086 171.439 C 539.966 173.181 538.370 174.564 536.486 175.424 C 534.603 176.284 532.512 176.585 530.463 176.290 C 528.414 175.995 526.492 175.118 524.928 173.762 C 523.363 172.406 522.221 170.629 521.637 168.643 C 521.054 166.656 521.054 164.544 521.637 162.557 C 522.221 160.571 523.363 158.794 524.928 157.438 C 526.492 156.082 528.414 155.205 530.463 154.910 C 532.512 154.615 534.603 154.916 536.486 155.776 C 538.370 156.636 539.966 158.019 541.086 159.761 C 542.205 161.503 542.800 163.530 542.800 165.600 Z" stroke="rgb(0,0,255)" stroke-width="0.40" />
  <path d="M 604.800 165.600 C 604.800 168.821 603.874 171.973 602.133 174.683 C 600.392 177.392 597.909 179.544 594.979 180.882 C 592.049 182.220 588.797 182.687 585.609 182.229 C 582.421 181.771 579.432 180.406 576.998 178.297 C 574.564 176.188 572.788 173.423 571.881 170.333 C 570.973 167.243 570.973 163.957 571.881 160.867 C 572.788 157.777 574.564 155.012 576.998 152.903 C 579.432 150.794 582.421 149.429 585.609 148.971 C 588.797 148.513 592.049 148.980 594.979 150.318 C 597.909 151.656 600.392 153.808 602.133 156.517 C 603.874 159.227 604.800 162.379 604.800 165.600 Z" stroke="rgb(0,0,255)" stroke-width="0.40" />
  <path d="M 662.400 165.600 C 662.400 168.054 661.695 170.456 660.368 172.520 C 659.041 174.584 657.149 176.224 654.917 177.243 C 652.685 178.263 650.207 178.619 647.778 178.270 C 645.350 177.920 643.072 176.881 641.218 175.274 C 639.363 173.667 638.010 171.561 637.318 169.206 C 636.627 166.852 636.627 164.348 637.318 161.994 C 638.010 159.639 639.363 157.533 641.218 155.926 C 643.072 154.319 645.350 153.280 647.778 152.930 C 650.207 152.581 652.685 152.937 654.917 153.957 C 657.149 154.976 659.041 156.616 660.368 158.680 C 661.695 160.744 662.400 163.146 662.400 165.600 Z" stroke="rgb(0,0,255)" stroke-width="0.40" />
  <path d="M 425.600 215.800 H 455.600 C 455.710 215.800 455.800 215.710 455.800 215.600 V 205.800 C 455.800 205.600 455.600 205.800 455.800 205.800 H 475.400 C 475.600 205.800 475.400 205.600 475.400 205.800 V 215.600 C 475.400 215.710 475.490 215.800 475.600 215.800 H 495.600 C 495.710 215.800 495.800 215.710 495.800 215.600 V 205.800 C 495.800 205.600 495.600 205.800 495.800 205.800 H 515.400 C 515.600 205.800 515.400 205.600 515.400 205.800 V 215.600 C 515.400 215.710 515.490 215.800 515.600 215.800 H 535.600 C 535.710 215.800 535.800 215.710 535.800 215.600 V 205.800 C 535.800 205.600 535.600 205.800 535.800 205.800 H 555.400 C 555.600 205.800 555.400 205.600 555.400 205.800 V 215.600 C 555.400 215.710 555.490 215.800 555.600 215.800 H 575.600 C 575.710 215.800 575.800 215.710 575.800 215.600 V 205.800 C 575.800 205.600 575.600 205.800 575.800 205.800 H 595.400 C 595.600 205.800 595.400 205.600 595.400 205.800 V 215.600 C 595.400 215.710 595.490 215.800 595.600 215.800 H 615.600 C 615.710 215.800 615.800 215.710 615.800 215.600 V 205.800 C 615.800 205.600 615.600 205.800 615.800 205.800 H 635.400 C 635.600 205.800 635.400 205.600 635.400 205.800 V 215.600 C 635.400 215.710 635.490 215.800 635.600 215.800 H 655.600 C 655.710 215.800 655.800 215.710 655.800 215.600 V 205.800 C 655.800 205.600 655.600 205.800 655.800 205.800 H 675.400 C 675.600 205.800 675.400 205.600 675.400 205.800 V 215.600 C 675.400 215.710 675.490 215.800 675.600 215.800 H 705.600 C 705.710 215.800 705.800 215.710 705.800 215.600 V 205.600 V 175.800 C 705.800 175.600 705.600 175.800 705.800 175.800 H 715.600 C 715.710 175.800 715.800 175.710 715.800 175.600 V 155.600 C 715.800 155.490 715.710 155.400 715.600 155.400 H 705.800 C 705.600 155.400 705.800 155.600 705.800 155.400 V 125.600 V 115.600 C 705.800 115.490 705.710 115.400 705.600 115.400 H 675.600 C 675.490 115.400 675.400 115.490 675.400 115.600 V 125.400 C 675.400 125.600 675.600 125.400 675.400 125.400 H 655.800 C 655.600 125.400 655.800 125.600 655.800 125.400 V 115.600 C 655.800 115.490 655.710 115.400 655.600 115.400 H 635.600 C 635.490 115.400 635.400 115.490 635.400 115.600 V 125.400 C 635.400 125.600 635.600 125.400 635.400 125.400 H 615.800 C 615.600 125.400 615.800 125.600 615.800 125.400 V 115.600 C 615.800 115.490 615.710 115.400 615.600 115.400 H 595.600 C 595.490 115.400 595.400 115.490 595.400 115.600 V 125.400 C 595.400 125.600 595.600 125.400 595.400 125.400 H 575.800 C 575.600 125.400 575.800 125.600 575.800 125.400 V 115.600 C 575.800 115.490 575.710 115.400 575.600 115.400 H 555.600 C 555.490 115.400 555.400 115.490 555.400 115.600 V 125.400 C 555.400 125.600 555.600 125.400 555.400 125.400 H 535.800 C 535.600 125.400 535.800 125.600 535.800 125.400 V 115.600 C 535.800 115.490 535.710 115.400 535.600 115.400 H 515.600 C 515.490 115.400 515.400 115.490 515.400 115.600 V 125.400 C 515.400 125.600 515.600 125.400 515.400 125.400 H 495.800 C 495.600 125.400 495.800 125.600 495.800 125.400 V 115.600 C 495.800 115.490 495.710 115.400 495.600 115.400 H 475.600 C 475.490 115.400 475.400 115.490 475.400 115.600 V 125.400 C 475.400 125.600 475.600 125.400 475.400 125.400 H 455.800 C 455.600 125.400 455.800 125.600 455.800 125.400 V 115.600 C 455.800 115.490 455.710 115.400 455.600 115.400 H 425.600 C 425.490 115.400 425.400 115.490 425.400 115.600 V 125.600 V 155.400 C 425.400 155.600 425.600 155.400 425.400 155.400 H 415.600 C 415.490 155.400 415.400 155.490 415.400 155.600 V 175.600 C 415.400 175.710 415.490 175.800 415.600 175.800 H 425.400 C 425.600 175.800 425.400 175.600 425.400 175.800 V 205.600 V 215.600 C 425.400 215.710 425.490 215.800 425.600 215.800 Z" stroke="rgb(0,0,0)" stroke-width="0.40" />
</g>
<g id="p-2" style="fill:none;stroke-linecap:round;stroke-linejoin:round;">
  <path d="M 490.800 60.200 C 490.800 63.037 489.984 65.815 488.451 68.201 C 486.917 70.588 484.729 72.484 482.148 73.663 C 479.567 74.841 476.702 75.253 473.894 74.849 C 471.085 74.446 468.452 73.243 466.308 71.385 C 464.164 69.527 462.599 67.092 461.800 64.370 C 461.000 61.647 461.000 58.753 461.800 56.030 C 462.599 53.308 464.164 50.873 466.308 49.015 C 468.452 47.157 471.085 45.954 473.894 45.551 C 476.702 45.147 479.567 45.559 482.148 46.737 C 484.729 47.916 486.917 49.812 488.451 52.199 C 489.984 54.585 490.800 57.363 490.800 60.200 Z" stroke="rgb(0,0,255)" stroke-width="0.40" />
  <path d="M 542.800 60.200 C 542.800 62.270 542.205 64.297 541.086 66.039 C 539.966 67.781 538.370 69.164 536.486 70.024 C 534.603 70.884 532.512 71.185 530.463 70.890 C 528.414 70.595 526.492 69.718 524.928 68.362 C 523.363 67.006 522.221 65.229 521.637 63.243 C 521.054 61.256 521.054 59.144 521.637 57.157 C 522.221 55.171 523.363 53.394 524.928 52.038 C 526.492 50.682 528.414 49.805 530.463 49.510 C 532.512 49.215 534.603 49.516 536.486 50.376 C 538.370 51.236 539.966 52.619 541.086 54.361 C 542.205 56.103 542.800 58.130 542.800 60.200 Z" stroke="rgb(0,0,255)" stroke-width="0.40" />
  <path d="M 604.800 60.200 C 604.800 63.421 603.874 66.573 602.133 69.283 C 600.392 71.992 597.909 74.144 594.979 75.482 C 592.049 76.820 588.797 77.287 585.609 76.829 C 582.421 76.371 579.432 75.006 576.998 72.897 C 574.564 70.788 572.788 68.023 571.881 64.933 C 570.973 61.843 570.973 58.557 571.881 55.467 C 572.788 52.377 574.564 49.612 576.998 47.503 C 579.432 45.394 582.421 44.029 585.609 43.571 C 588.797 43.113 592.049 43.580 594.979 44.918 C 597.909 46.256 600.392 48.408 602.133 51.117 C 603.874 53.827 604.800 56.979 604.800 60.200 Z" stroke="rgb(0,0,255)" stroke-width="0.40" />
  <path d="M 662.400 60.200 C 662.400 62.654 661.695 65.056 660.368 67.120 C 659.041 69.184 657.149 70.824 654.917 71.843 C 652.685 72.863 650.207 73.219 647.778 72.870 C 645.350 72.520 643.072 71.481 641.218 69.874 C 639.363 68.267 638.010 66.161 637.318 63.806 C 636.627 61.452 636.627 58.948 637.318 56.594 C 638.010 54.239 639.363 52.133 641.218 50.526 C 643.072 48.919 645.350 47.880 647.778 47.530 C 650.207 47.181 652.685 47.537 654.917 48.557 C 657.149 49.576 659.041 51.216 660.368 53.280 C 661.695 55.344 662.400 57.746 662.400 60.200 Z" stroke="rgb(0,0,255)" stroke-width="0.40" />
  <path d="M 425.600 110.400 H 455.600 C 455.710 110.400 455.800 110.310 455.800 110.200 V 100.400 C 455.800 100.200 455.600 100.400 455.800 100.400 H 475.400 C 475.600 100.400 475.400 100.200 475.400 100.400 V 110.200 C 475.400 110.310 475.490 110.400 475.600 110.400 H 495.600 C 495.710 110.400 495.800 110.310 495.800 110.200 V 100.400 C 495.800 100.200 495.600 100.400 495.800 100.400 H 515.400 C 515.600 100.400 515.400 100.200 515.400 100.400 V 110.200 C 515.400 110.310 515.490 110.400 515.600 110.400 H 535.600 C 535.710 110.400 535.800 110.310 535.800 110.200 V 100.400 C 535.800 100.200 535.600 100.400 535.800 100.400 H 555.400 C 555.600 100.400 555.400 100.200 555.400 100.400 V 110.200 C 555.400 110.310 555.490 110.400 555.600 110.400 H 575.600 C 575.710 110.400 575.800 110.310 575.800 110.200 V 100.400 C 575.800 100.200 575.600 100.400 575.800 100.400 H 595.400 C 595.600 100.400 595.400 100.200 595.400 100.400 V 110.200 C 595.400 110.310 595.490 110.400 595.600 110.400 H 615.600 C 615.710 110.400 615.800 110.310 615.800 110.200 V 100.400 C 615.800 100.200 615.600 100.400 615.800 100.400 H 635.400 C 635.600 100.400 635.400 100.200 635.400 100.400 V 110.200 C 635.400 110.310 635.490 110.400 635.600 110.400 H 655.600 C 655.710 110.400 655.800 110.310 655.800 110.200 V 100.400 C 655.800 100.200 655.600 100.400 655.800 100.400 H 675.400 C 675.600 100.400 675.400 100.200 675.400 100.400 V 110.200 C 675.400 110.310 675.490 110.400 675.600 110.400 H 705.600 C 705.710 110.400 705.800 110.310 705.800 110.200 V 100.200 V 70.400 C 705.800 70.200 705.600 70.400 705.800 70.400 H 715.600 C 715.710 70.400 715.800 70.310 715.800 70.200 V 50.200 C 715.800 50.090 715.710 50.000 715.600 50.000 H 705.800 C 705.600 50.000 705.800 50.200 705.800 50.000 V 20.200 V 10.200 C 705.800 10.090 705.710 10.000 705.600 10.000 H 675.600 C 675.490 10.000 675.400 10.090 675.400 10.200 V 20.000 C 675.400 20.200 675.600 20.000 675.400 20.000 H 655.800 C 655.600 20.000 655.800 20.200 655.800 20.000 V 10.200 C 655.800 10.090 655.710 10.000 655.600 10.000 H 635.600 C 635.490 10.000 635.400 10.090 635.400 10.200 V 20.000 C 635.400 20.200 635.600 20.000 635.400 20.000 H 615.800 C 615.600 20.000 615.800 20.200 615.800 20.000 V 10.200 C 615.800 10.090 615.710 10.000 615.600 10.000 H 595.600 C 595.490 10.000 595.400 10.090 595.400 10.200 V 20.000 C 595.400 20.200 595.600 20.000 595.400 20.000 H 575.800 C 575.600 20.000 575.800 20.200 575.800 20.000 V 10.200 C 575.800 10.090 575.710 10.000 575.600 10.000 H 555.600 C 555.490 10.000 555.400 10.090 555.400 10.200 V 20.000 C 555.400 20.200 555.600 20.000 555.400 20.000 H 535.800 C 535.600 20.000 535.800 20.200 535.800 20.000 V 10.200 C 535.800 10.090 535.710 10.000 535.600 10.000 H 515.600 C 515.490 10.000 515.400 10.090 515.400 10.200 V 20.000 C 515.400 20.200 515.600 20.000 515.400 20.000 H 495.800 C 495.600 20.000 495.800 20.200 495.800 20.000 V 10.200 C 495.800 10.090 495.710 10.000 495.600 10.000 H 475.600 C 475.490 10.000 475.400 10.090 475.400 10.200 V 20.000 C 475.400 20.200 475.600 20.000 475.400 20.000 H 455.800 C 455.600 20.000 455.800 20.200 455.800 20.000 V 10.200 C 455.800 10.090 455.710 10.000 455.600 10.000 H 425.600 C 425.490 10.000 425.400 10.090 425.400 10.200 V 20.200 V 50.000 C 425.400 50.200 425.600 50.000 425.400 50.000 H 415.600 C 415.490 50.000 415.400 50.090 415.400 50.200 V 70.200 C 415.400 70.310 415.490 70.400 415.600 70.400 H 425.400 C 425.600 70.400 425.400 70.200 425.400 70.400 V 100.200 V 110.200 C 425.400 110.310 425.490 110.400 425.600 110.400 Z" stroke="rgb(0,0,0)" stroke-width="0.40" />
</g>
<g id="p-3" style="fill:none;stroke-linecap:round;stroke-linejoin:round;">
  <path d="M 93.000 60.200 C 93.000 63.229 92.129 66.194 90.492 68.742 C 88.854 71.290 86.519 73.314 83.764 74.572 C 81.008 75.830 77.950 76.270 74.951 75.839 C 71.953 75.408 69.142 74.124 66.853 72.141 C 64.564 70.157 62.893 67.558 62.040 64.651 C 61.187 61.745 61.187 58.655 62.040 55.749 C 62.893 52.842 64.564 50.243 66.853 48.259 C 69.142 46.276 71.953 44.992 74.951 44.561 C 77.950 44.130 81.008 44.570 83.764 45.828 C 86.519 47.086 88.854 49.110 90.492 51.658 C 92.129 54.206 93.000 57.171 93.000 60.200 Z" stroke="rgb(0,0,255)" stroke-width="0.40" />
  <path d="M 153.600 60.200 C 153.600 62.462 152.950 64.677 151.727 66.580 C 150.504 68.483 148.760 69.994 146.702 70.934 C 144.644 71.873 142.360 72.202 140.121 71.880 C 137.882 71.558 135.782 70.599 134.073 69.118 C 132.363 67.636 131.115 65.695 130.478 63.524 C 129.841 61.354 129.841 59.046 130.478 56.876 C 131.115 54.705 132.363 52.764 134.073 51.282 C 135.782 49.801 137.882 48.842 140.121 48.520 C 142.360 48.198 144.644 48.527 146.702 49.466 C 148.760 50.406 150.504 51.917 151.727 53.820 C 152.950 55.723 153.600 57.938 153.600 60.200 Z" stroke="rgb(0,0,255)" stroke-width="0.40" />
  <path d="M 228.000 60.200 C 228.000 63.612 227.019 66.953 225.174 69.823 C 223.329 72.694 220.698 74.974 217.594 76.391 C 214.490 77.809 211.044 78.304 207.667 77.819 C 204.289 77.333 201.122 75.887 198.543 73.652 C 195.965 71.418 194.082 68.489 193.121 65.215 C 192.160 61.941 192.160 58.459 193.121 55.185 C 194.082 51.911 195.965 48.982 198.543 46.748 C 201.122 44.513 204.289 43.067 207.667 42.581 C 211.044 42.096 214.490 42.591 217.594 44.009 C 220.698 45.426 223.329 47.706 225.174 50.577 C 227.019 53.447 228.000 56.788 228.000 60.200 Z" stroke="rgb(0,0,255)" stroke-width="0.40" />
  <path d="M 290.400 60.200 C 290.400 62.462 289.750 64.677 288.527 66.580 C 287.304 68.483 285.560 69.994 283.502 70.934 C 281.444 71.873 279.160 72.202 276.921 71.880 C 274.682 71.558 272.582 70.599 270.873 69.118 C 269.163 67.636 267.915 65.695 267.278 63.524 C 266.641 61.354 266.641 59.046 267.278 56.876 C 267.915 54.705 269.163 52.764 270.873 51.282 C 272.582 49.801 274.682 48.842 276.921 48.520 C 279.160 48.198 281.444 48.527 283.502 49.466 C 285.560 50.406 287.304 51.917 288.527 53.820 C 289.750 55.723 290.400 57.938 290.400 60.200 Z" stroke="rgb(0,0,255)" stroke-width="0.40" />
  <path d="M 359.000 60.200 C 359.000 63.229 358.129 66.194 356.492 68.742 C 354.854 71.290 352.519 73.314 349.764 74.572 C 347.008 75.830 343.950 76.270 340.951 75.839 C 337.953 75.408 335.142 74.124 332.853 72.141 C 330.564 70.157 328.893 67.558 328.040 64.651 C 327.187 61.745 327.187 58.655 328.040 55.749 C 328.893 52.842 330.564 50.243 332.853 48.259 C 335.142 46.276 337.953 44.992 340.951 44.561 C 343.950 44.130 347.008 44.570 349.764 45.828 C 352.519 47.086 354.854 49.110 356.492 51.658 C 358.129 54.206 359.000 57.171 359.000 60.200 Z" stroke="rgb(0,0,255)" stroke-width="0.40" />
  <path d="M 20.200 110.400 H 40.200 C 40.310 110.400 40.400 110.310 40.400 110.200 V 100.400 C 40.400 100.200 40.200 100.400 40.400 100.400 H 60.000 C 60.200 100.400 60.000 100.200 60.000 100.400 V 110.200 C 60.000 110.310 60.090 110.400 60.200 110.400 H 80.200 C 80.310 110.400 80.400 110.310 80.400 110.200 V 100.400 C 80.400 100.200 80.200 100.400 80.400 100.400 H 100.000 C 100.200 100.400 100.000 100.200 100.000 100.400 V 110.200 C 100.000 110.310 100.090 110.400 100.200 110.400 H 120.200 C 120.310 110.400 120.400 110.310 120.400 110.200 V 100.400 C 120.400 100.200 120.200 100.400 120.400 100.400 H 140.000 C 140.200 100.400 140.000 100.200 140.000 100.400 V 110.200 C 140.000 110.310 140.090 110.400 140.200 110.400 H 160.200 C 160.310 110.400 160.400 110.310 160.400 110.200 V 100.400 C 160.400 100.200 160.200 100.400 160.400 100.400 H 180.000 C 180.200 100.400 180.000 100.200 180.000 100.400 V 110.200 C 180.000 110.310 180.090 110.400 180.200 110.400 H 200.200 C 200.310 110.400 200.400 110.310 200.400 110.200 V 100.400 C 200.400 100.200 200.200 100.400 200.400 100.400 H 220.000 C 220.200 100.400 220.000 100.200 220.000 100.400 V 110.200 C 220.000 110.310 220.090 110.400 220.200 110.400 H 240.200 C 240.310 110.400 240.400 110.310 240.400 110.200 V 100.400 C 240.400 100.200 240.200 100.400 240.400 100.400 H 260.000 C 260.200 100.400 260.000 100.200 260.000 100.400 V 110.200 C 260.000 110.310 260.090 110.400 260.200 110.400 H 280.200 C 280.310 110.400 280.400 110.310 280.400 110.200 V 100.400 C 280.400 100.200 280.200 100.400 280.400 100.400 H 300.000 C 300.200 100.400 300.000 100.200 300.000 100.400 V 110.200 C 300.000 110.310 300.090 110.400 300.200 110.400 H 320.200 C 320.310 110.400 320.400 110.310 320.400 110.200 V 100.400 C 320.400 100.200 320.200 100.400 320.400 100.400 H 340.000 C 340.200 100.400 340.000 100.200 340.000 100.400 V 110.200 C 340.000 110.310 340.090 110.400 340.200 110.400 H 360.200 C 360.310 110.400 360.400 110.310 360.400 110.200 V 100.400 C 360.400 100.200 360.200 100.400 360.400 100.400 H 380.000 C 380.200 100.400 380.000 100.200 380.000 100.400 V 110.200 C 380.000 110.310 380.090 110.400 380.200 110.400 H 400.200 H 410.200 C 410.310 110.400 410.400 110.310 410.400 110.200 V 100.200 V 70.200 C 410.400 70.090 410.310 70.000 410.200 70.000 H 400.400 C 400.200 70.000 400.400 70.200 400.400 70.000 V 50.400 C 400.400 50.200 400.200 50.400 400.400 50.400 H 410.200 C 410.310 50.400 410.400 50.310 410.400 50.200 V 20.200 V 10.200 C 410.400 10.090 410.310 10.000 410.200 10.000 H 400.200 H 380.200 C 380.090 10.000 380.000 10.090 380.000 10.200 V 20.000 C 380.000 20.200 380.200 20.000 380.000 20.000 H 360.400 C 360.200 20.000 360.400 20.200 360.400 20.000 V 10.200 C 360.400 10.090 360.310 10.000 360.200 10.000 H 340.200 C 340.090 10.000 340.000 10.090 340.000 10.200 V 20.000 C 340.000 20.200 340.200 20.000 340.000 20.000 H 320.400 C 320.200 20.000 320.400 20.200 320.400 20.000 V 10.200 C 320.400 10.090 320.310 10.000 320.200 10.000 H 300.200 C 300.090 10.000 300.000 10.090 300.000 10.200 V 20.000 C 300.000 20.200 300.200 20.000 300.000 20.000 H 280.400 C 280.200 20.000 280.400 20.200 280.400 20.000 V 10.200 C 280.400 10.090 280.310 10.000 280.200 10.000 H 260.200 C 260.090 10.000 260.000 10.090 260.000 10.200 V 20.000 C 260.000 20.200 260.200 20.000 260.000 20.000 H 240.400 C 240.200 20.000 240.400 20.200 240.400 20.000 V 10.200 C 240.400 10.090 240.310 10.000 240.200 10.000 H 220.200 C 220.090 10.000 220.000 10.090 220.000 10.200 V 20.000 C 220.000 20.200 220.200 20.000 220.000 20.000 H 200.400 C 200.200 20.000 200.400 20.200 200.400 20.000 V 10.200 C 200.400 10.090 200.310 10.000 200.200 10.000 H 180.200 C 180.090 10.000 180.000 10.090 180.000 10.200 V 20.000 C 180.000 20.200 180.200 20.000 180.000 20.000 H 160.400 C 160.200 20.000 160.400 20.200 160.400 20.000 V 10.200 C 160.400 10.090 160.310 10.000 160.200 10.000 H 140.200 C 140.090 10.000 140.000 10.090 140.000 10.200 V 20.000 C 140.000 20.200 140.200 20.000 140.000 20.000 H 120.400 C 120.200 20.000 120.400 20.200 120.400 20.000 V 10.200 C 120.400 10.090 120.310 10.000 120.200 10.000 H 100.200 C 100.090 10.000 100.000 10.090 100.000 10.200 V 20.000 C 100.000 20.200 100.200 20.000 100.000 20.000 H 80.400 C 80.200 20.000 80.400 20.200 80.400 20.000 V 10.200 C 80.400 10.090 80.310 10.000 80.200 10.000 H 60.200 C 60.090 10.000 60.000 10.090 60.000 10.200 V 20.000 C 60.000 20.200 60.200 20.000 60.000 20.000 H 40.400 C 40.200 20.000 40.400 20.200 40.400 20.000 V 10.200 C 40.400 10.090 40.310 10.000 40.200 10.000 H 20.200 H 10.200 C 10.090 10.000 10.000 10.090 10.000 10.200 V 20.200 V 50.200 C 10.000 50.310 10.090 50.400 10.200 50.400 H 20.000 C 20.200 50.400 20.000 50.200 20.000 50.400 V 70.000 C 20.000 70.200 20.200 70.000 20.000 70.000 H 10.200 C 10.090 70.000 10.000 70.090 10.000 70.200 V 100.200 V 110.200 C 10.000 110.310 10.090 110.400 10.200 110.400 H 20.200 Z" stroke="rgb(0,0,0)" stroke-width="0.40" />
</g>
</svg>