<?xml version='1.0' encoding='utf-8'?>
<svg height="320.40mm" viewBox="0.0 0.0 420.40 320.40" width="420.40mm" xmlns="http://www.w3.org/2000/svg" xmlns:cc="http://creativecommons.org/ns#" xmlns:dc="http://purl.org/dc/elements/1.1/" xmlns:inkscape="http://www.inkscape.org/namespaces/inkscape" xmlns:rdf="http://www.w3.org/1999/02/22-rdf-syntax-ns#" xmlns:svg="http://www.w3.org/2000/svg" xmlns:xlink="http://www.w3.org/1999/xlink">
<!--
PuzzleBoxPart - One output sheet from the cat puzzle box or its sandpaper lining.

Created with Boxes.py (https://boxes.hackerspace-bamberg.de/)
Creation date: 2026-06-28 19:40:03
Command line (remove spaces between dashes): boxes PuzzleBoxPart - -thickness=10.0 - -burn=0.2 - -reference=0 - -labels=false
-->
<title>PuzzleBoxPart</title>
<metadata>
<rdf:RDF><cc:Work>
<dc:title>Misc - PuzzleBoxPart</dc:title>
<dc:date>2026-06-28 19:40:03</dc:date>
<dc:source>boxes PuzzleBoxPart --thickness=10.0 --burn=0.2 --format=svg --reference=0 --labels=false</dc:source>
<dc:description>One output sheet from the cat puzzle box or its sandpaper lining.

Created with Boxes.py (https://boxes.hackerspace-bamberg.de/)
Command line: boxes PuzzleBoxPart --thickness=10.0 --burn=0.2 --format=svg --reference=0 --labels=false
Command line short: boxes PuzzleBoxPart --thickness=10.0 --burn=0.2 --reference=0 --labels=false
</dc:description>
</cc:Work></rdf:RDF></metadata>
<g id="p-0" style="fill:none;stroke-linecap:round;stroke-linejoin:round;">
  <path d="M 158.000 115.200 C 158.000 122.830 155.807 130.299 151.682 136.718 C 147.557 143.136 141.674 148.234 134.734 151.403 C 127.793 154.573 120.088 155.681 112.536 154.595 C 104.984 153.509 97.903 150.275 92.137 145.279 C 86.370 140.282 82.162 133.734 80.012 126.413 C 77.863 119.092 77.863 111.308 80.012 103.987 C 82.162 96.666 86.370 90.118 92.137 85.121 C 97.903 80.125 104.984 76.891 112.536 75.805 C 120.088 74.719 127.793 75.827 134.734 78.997 C 141.674 82.166 147.557 87.264 151.682 93.682 C 155.807 100.101 158.000 107.570 158.000 115.200 Z" stroke="rgb(0,0,255)" stroke-width="0.40" />
  <path d="M 254.000 158.200 C 254.000 164.871 252.082 171.402 248.476 177.014 C 244.869 182.627 239.725 187.084 233.656 189.855 C 227.588 192.627 220.851 193.595 214.247 192.646 C 207.644 191.696 201.453 188.869 196.411 184.500 C 191.369 180.131 187.689 174.405 185.810 168.004 C 183.930 161.603 183.930 154.797 185.810 148.396 C 187.689 141.995 191.369 136.269 196.411 131.900 C 201.453 127.531 207.644 124.704 214.247 123.754 C 220.851 122.805 227.588 123.773 233.656 126.545 C 239.725 129.316 244.869 133.773 248.476 139.386 C 252.082 144.998 254.000 151.529 254.000 158.200 Z" stroke="rgb(0,0,255)" stroke-width="0.40" />
  <path d="M 311.000 121.200 C 311.000 124.421 310.074 127.573 308.333 130.283 C 306.592 132.992 304.109 135.144 301.179 136.482 C 298.249 137.820 294.997 138.287 291.809 137.829 C 288.621 137.371 285.632 136.006 283.198 133.897 C 280.764 131.788 278.988 129.023 278.081 125.933 C 277.173 122.843 277.173 119.557 278.081 116.467 C 278.988 113.377 280.764 110.612 283.198 108.503 C 285.632 106.394 288.621 105.029 291.809 104.571 C 294.997 104.113 298.249 104.580 301.179 105.918 C 304.109 107.256 306.592 109.408 308.333 112.117 C 310.074 114.827 311.000 117.979 311.000 121.200 Z" stroke="rgb(0,0,255)" stroke-width="0.40" />
  <path d="M 167.000 216.200 C 167.000 219.421 166.074 222.573 164.333 225.283 C 162.592 227.992 160.109 230.144 157.179 231.482 C 154.249 232.820 150.997 233.287 147.809 232.829 C 144.621 232.371 141.632 231.006 139.198 228.897 C 136.764 226.788 134.988 224.023 134.081 220.933 C 133.173 217.843 133.173 214.557 134.081 211.467 C 134.988 208.377 136.764 205.612 139.198 203.503 C 141.632 201.394 144.621 200.029 147.809 199.571 C 150.997 199.113 154.249 199.580 157.179 200.918 C 160.109 202.256 162.592 204.408 164.333 207.117 C 166.074 209.827 167.000 212.979 167.000 216.200 Z" stroke="rgb(0,0,255)" stroke-width="0.40" />
  <path d="M 333.000 196.200 C 333.000 198.846 332.240 201.435 330.809 203.661 C 329.379 205.886 327.339 207.654 324.933 208.753 C 322.526 209.852 319.855 210.236 317.236 209.860 C 314.617 209.483 312.162 208.362 310.163 206.629 C 308.164 204.897 306.704 202.626 305.959 200.088 C 305.214 197.550 305.214 194.850 305.959 192.312 C 306.704 189.774 308.164 187.503 310.163 185.771 C 312.162 184.038 314.617 182.917 317.236 182.540 C 319.855 182.164 322.526 182.548 324.933 183.647 C 327.339 184.746 329.379 186.514 330.809 188.739 C 332.240 190.965 333.000 193.554 333.000 196.200 Z" stroke="rgb(0,0,255)" stroke-width="0.40" />
  <path d="M 372.000 192.200 C 372.000 194.654 371.295 197.056 369.968 199.120 C 368.641 201.184 366.749 202.824 364.517 203.843 C 362.285 204.863 359.807 205.219 357.378 204.870 C 354.950 204.520 352.672 203.481 350.818 201.874 C 348.963 200.267 347.610 198.161 346.918 195.806 C 346.227 193.452 346.227 190.948 346.918 188.594 C 347.610 186.239 348.963 184.133 350.818 182.526 C 352.672 180.919 354.950 179.880 357.378 179.530 C 359.807 179.181 362.285 179.537 364.517 180.557 C 366.749 181.576 368.641 183.216 369.968 185.280 C 371.295 187.344 372.000 189.746 372.000 192.200 Z" stroke="rgb(0,0,255)" stroke-width="0.40" />
  <path d="M 303.000 225.200 C 303.000 227.654 302.295 230.056 300.968 232.120 C 299.641 234.184 297.749 235.824 295.517 236.843 C 293.285 237.863 290.807 238.219 288.378 237.870 C 285.950 237.520 283.672 236.481 281.818 234.874 C 279.963 233.267 278.610 231.161 277.918 228.806 C 277.227 226.452 277.227 223.948 277.918 221.594 C 278.610 219.239 279.963 217.133 281.818 215.526 C 283.672 213.919 285.950 212.880 288.378 212.530 C 290.807 212.181 293.285 212.537 295.517 213.557 C 297.749 214.576 299.641 216.216 300.968 218.280 C 302.295 220.344 303.000 222.746 303.000 225.200 Z" stroke="rgb(0,0,255)" stroke-width="0.40" />
  <path d="M 303.000 268.200 C 303.000 270.654 302.295 273.056 300.968 275.120 C 299.641 277.184 297.749 278.824 295.517 279.843 C 293.285 280.863 290.807 281.219 288.378 280.870 C 285.950 280.520 283.672 279.481 281.818 277.874 C 279.963 276.267 278.610 274.161 277.918 271.806 C 277.227 269.452 277.227 266.948 277.918 264.594 C 278.610 262.239 279.963 260.133 281.818 258.526 C 283.672 256.919 285.950 255.880 288.378 255.530 C 290.807 255.181 293.285 255.537 295.517 256.557 C 297.749 257.576 299.641 259.216 300.968 261.280 C 302.295 263.344 303.000 265.746 303.000 268.200 Z" stroke="rgb(0,0,255)" stroke-width="0.40" />
  <path d="M 378.000 251.200 C 378.000 256.913 376.358 262.505 373.269 267.311 C 370.181 272.117 365.776 275.934 360.579 278.307 C 355.383 280.680 349.614 281.510 343.959 280.697 C 338.304 279.884 333.003 277.462 328.685 273.721 C 324.368 269.980 321.217 265.077 319.607 259.596 C 317.998 254.114 317.998 248.286 319.607 242.804 C 321.217 237.323 324.368 232.420 328.685 228.679 C 333.003 224.938 338.304 222.516 343.959 221.703 C 349.614 220.890 355.383 221.720 360.579 224.093 C 365.776 226.466 370.181 230.283 373.269 235.089 C 376.358 239.895 378.000 245.487 378.000 251.200 Z" stroke="rgb(0,0,255)" stroke-width="0.40" />
  <path d="M 72.200 280.200 C 70.129 280.200 68.094 279.655 66.300 278.619 C 64.506 277.583 63.017 276.094 61.981 274.300 C 60.945 272.506 60.400 270.471 60.400 268.400 V 182.400 C 60.400 179.451 61.176 176.554 62.651 174.000 C 64.125 171.446 66.246 169.325 68.800 167.851 C 71.354 166.376 74.251 165.600 77.200 165.600 C 80.149 165.600 83.046 166.376 85.600 167.851 C 88.154 169.325 90.275 171.446 91.749 174.000 C 93.224 176.554 94.000 179.451 94.000 182.400 V 232.400 C 94.000 234.893 94.656 237.341 95.902 239.500 C 97.149 241.659 98.941 243.451 101.100 244.698 C 103.259 245.944 105.707 246.600 108.200 246.600 H 238.200 C 241.149 246.600 244.046 247.376 246.600 248.851 C 249.154 250.325 251.275 252.446 252.749 255.000 C 254.224 257.554 255.000 260.451 255.000 263.400 C 255.000 266.349 254.224 269.246 252.749 271.800 C 251.275 274.354 249.154 276.475 246.600 277.949 C 244.046 279.424 241.149 280.200 238.200 280.200 H 72.200 Z" stroke="rgb(0,0,255)" stroke-width="0.40" />
  <path d="M 363.200 40.200 C 365.271 40.200 367.306 40.745 369.100 41.781 C 370.894 42.817 372.383 44.306 373.419 46.100 C 374.455 47.894 375.000 49.929 375.000 52.000 V 144.000 C 375.000 146.773 374.270 149.498 372.883 151.900 C 371.496 154.302 369.502 156.296 367.100 157.683 C 364.698 159.070 361.973 159.800 359.200 159.800 C 356.427 159.800 353.702 159.070 351.300 157.683 C 348.898 156.296 346.904 154.302 345.517 151.900 C 344.130 149.498 343.400 146.773 343.400 144.000 V 86.000 C 343.400 83.507 342.744 81.059 341.498 78.900 C 340.251 76.741 338.459 74.949 336.300 73.702 C 334.141 72.456 331.693 71.800 329.200 71.800 H 196.200 C 193.427 71.800 190.702 71.070 188.300 69.683 C 185.898 68.296 183.904 66.302 182.517 63.900 C 181.130 61.498 180.400 58.773 180.400 56.000 C 180.400 53.227 181.130 50.502 182.517 48.100 C 183.904 45.698 185.898 43.704 188.300 42.317 C 190.702 40.930 193.427 40.200 196.200 40.200 H 363.200 Z" stroke="rgb(0,0,255)" stroke-width="0.40" />
  <path d="M 20.200 300.400 H 40.000 C 40.200 300.400 40.000 300.200 40.000 300.400 V 310.200 C 40.000 310.310 40.090 310.400 40.200 310.400 H 60.200 C 60.310 310.400 60.400 310.310 60.400 310.200 V 300.400 C 60.400 300.200 60.200 300.400 60.400 300.400 H 80.000 C 80.200 300.400 80.000 300.200 80.000 300.400 V 310.200 C 80.000 310.310 80.090 310.400 80.200 310.400 H 100.200 C 100.310 310.400 100.400 310.310 100.400 310.200 V 300.400 C 100.400 300.200 100.200 300.400 100.400 300.400 H 120.000 C 120.200 300.400 120.000 300.200 120.000 300.400 V 310.200 C 120.000 310.310 120.090 310.400 120.200 310.400 H 140.200 C 140.310 310.400 140.400 310.310 140.400 310.200 V 300.400 C 140.400 300.200 140.200 300.400 140.400 300.400 H 160.000 C 160.200 300.400 160.000 300.200 160.000 300.400 V 310.200 C 160.000 310.310 160.090 310.400 160.200 310.400 H 180.200 C 180.310 310.400 180.400 310.310 180.400 310.200 V 300.400 C 180.400 300.200 180.200 300.400 180.400 300.400 H 200.000 C 200.200 300.400 200.000 300.200 200.000 300.400 V 310.200 C 200.000 310.310 200.090 310.400 200.200 310.400 H 220.200 C 220.310 310.400 220.400 310.310 220.400 310.200 V 300.400 C 220.400 300.200 220.200 300.400 220.400 300.400 H 240.000 C 240.200 300.400 240.000 300.200 240.000 300.400 V 310.200 C 240.000 310.310 240.090 310.400 240.200 310.400 H 260.200 C 260.310 310.400 260.400 310.310 260.400 310.200 V 300.400 C 260.400 300.200 260.200 300.400 260.400 300.400 H 280.000 C 280.200 300.400 280.000 300.200 280.000 300.400 V 310.200 C 280.000 310.310 280.090 310.400 280.200 310.400 H 300.200 C 300.310 310.400 300.400 310.310 300.400 310.200 V 300.400 C 300.400 300.200 300.200 300.400 300.400 300.400 H 320.000 C 320.200 300.400 320.000 300.200 320.000 300.400 V 310.200 C 320.000 310.310 320.090 310.400 320.200 310.400 H 340.200 C 340.310 310.400 340.400 310.310 340.400 310.200 V 300.400 C 340.400 300.200 340.200 300.400 340.400 300.400 H 360.000 C 360.200 300.400 360.000 300.200 360.000 300.400 V 310.200 C 360.000 310.310 360.090 310.400 360.200 310.400 H 380.200 C 380.310 310.400 380.400 310.310 380.400 310.200 V 300.400 C 380.400 300.200 380.200 300.400 380.400 300.400 H 400.200 C 400.310 300.400 400.400 300.310 400.400 300.200 V 270.400 C 400.400 270.200 400.200 270.400 400.400 270.400 H 410.200 C 410.310 270.400 410.400 270.310 410.400 270.200 V 250.200 C 410.400 250.090 410.310 250.000 410.200 250.000 H 400.400 C 400.200 250.000 400.400 250.200 400.400 250.000 V 230.400 C 400.400 230.200 400.200 230.400 400.400 230.400 H 410.200 C 410.310 230.400 410.400 230.310 410.400 230.200 V 210.200 C 410.400 210.090 410.310 210.000 410.200 210.000 H 400.400 C 400.200 210.000 400.400 210.200 400.400 210.000 V 190.400 C 400.400 190.200 400.200 190.400 400.400 190.400 H 410.200 C 410.310 190.400 410.400 190.310 410.400 190.200 V 170.200 C 410.400 170.090 410.310 170.000 410.200 170.000 H 400.400 C 400.200 170.000 400.400 170.200 400.400 170.000 V 150.400 C 400.400 150.200 400.200 150.400 400.400 150.400 H 410.200 C 410.310 150.400 410.400 150.310 410.400 150.200 V 130.200 C 410.400 130.090 410.310 130.000 410.200 130.000 H 400.400 C 400.200 130.000 400.400 130.200 400.400 130.000 V 110.400 C 400.400 110.200 400.200 110.400 400.400 110.400 H 410.200 C 410.310 110.400 410.400 110.310 410.400 110.200 V 90.200 C 410.400 90.090 410.310 90.000 410.200 90.000 H 400.400 C 400.200 90.000 400.400 90.200 400.400 90.000 V 70.400 C 400.400 70.200 400.200 70.400 400.400 70.400 H 410.200 C 410.310 70.400 410.400 70.310 410.400 70.200 V 50.200 C 410.400 50.090 410.310 50.000 410.200 50.000 H 400.400 C 400.200 50.000 400.400 50.200 400.400 50.000 V 20.200 C 400.400 20.090 400.310 20.000 400.200 20.000 H 380.400 C 380.200 20.000 380.400 20.200 380.400 20.000 V 10.200 C 380.400 10.090 380.310 10.000 380.200 10.000 H 360.200 C 360.090 10.000 360.000 10.090 360.000 10.200 V 20.000 C 360.000 20.200 360.200 20.000 360.000 20.000 H 340.400 C 340.200 20.000 340.400 20.200 340.400 20.000 V 10.200 C 340.400 10.090 340.310 10.000 340.200 10.000 H 320.200 C 320.090 10.000 320.000 10.090 320.000 10.200 V 20.000 C 320.000 20.200 320.200 20.000 320.000 20.000 H 300.400 C 300.200 20.000 300.400 20.200 300.400 20.000 V 10.200 C 300.400 10.090 300.310 10.000 300.200 10.000 H 280.200 C 280.090 10.000 280.000 10.090 280.000 10.200 V 20.000 C 280.000 20.200 280.200 20.000 280.000 20.000 H 260.400 C 260.200 20.000 260.400 20.200 260.400 20.000 V 10.200 C 260.400 10.090 260.310 10.000 260.200 10.000 H 240.200 C 240.090 10.000 240.000 10.090 240.000 10.200 V 20.000 C 240.000 20.200 240.200 20.000 240.000 20.000 H 220.400 C 220.200 20.000 220.400 20.200 220.400 20.000 V 10.200 C 220.400 10.090 220.310 10.000 220.200 10.000 H 200.200 C 200.090 10.000 200.000 10.090 200.000 10.200 V 20.000 C 200.000 20.200 200.200 20.000 200.000 20.000 H 180.400 C 180.200 20.000 180.400 20.200 180.400 20.000 V 10.200 C 180.400 10.090 180.310 10.000 180.200 10.000 H 160.200 C 160.090 10.000 160.000 10.090 160.000 10.200 V 20.000 C 160.000 20.200 160.200 20.000 160.000 20.000 H 140.400 C 140.200 20.000 140.400 20.200 140.400 20.000 V 10.200 C 140.400 10.090 140.310 10.000 140.200 10.000 H 120.200 C 120.090 10.000 120.000 10.090 120.000 10.200 V 20.000 C 120.000 20.200 120.200 20.000 120.000 20.000 H 100.400 C 100.200 20.000 100.400 20.200 100.400 20.000 V 10.200 C 100.400 10.090 100.310 10.000 100.200 10.000 H 80.200 C 80.090 10.000 80.000 10.090 80.000 10.200 V 20.000 C 80.000 20.200 80.200 20.000 80.000 20.000 H 60.400 C 60.200 20.000 60.400 20.200 60.400 20.000 V 10.200 C 60.400 10.090 60.310 10.000 60.200 10.000 H 40.200 C 40.090 10.000 40.000 10.090 40.000 10.200 V 20.000 C 40.000 20.200 40.200 20.000 40.000 20.000 H 20.200 C 20.090 20.000 20.000 20.090 20.000 20.200 V 50.000 C 20.000 50.200 20.200 50.000 20.000 50.000 H 10.200 C 10.090 50.000 10.000 50.090 10.000 50.200 V 70.200 C 10.000 70.310 10.090 70.400 10.200 70.400 H 20.000 C 20.200 70.400 20.000 70.200 20.000 70.400 V 90.000 C 20.000 90.200 20.200 90.000 20.000 90.000 H 10.200 C 10.090 90.000 10.000 90.090 10.000 90.200 V 110.200 C 10.000 110.310 10.090 110.400 10.200 110.400 H 20.000 C 20.200 110.400 20.000 110.200 20.000 110.400 V 130.000 C 20.000 130.200 20.200 130.000 20.000 130.000 H 10.200 C 10.090 130.000 10.000 130.090 10.000 130.200 V 150.200 C 10.000 150.310 10.090 150.400 10.200 150.400 H 20.000 C 20.200 150.400 20.000 150.200 20.000 150.400 V 170.000 C 20.000 170.200 20.200 170.000 20.000 170.000 H 10.200 C 10.090 170.000 10.000 170.090 10.000 170.200 V 190.200 C 10.000 190.310 10.090 190.400 10.200 190.400 H 20.000 C 20.200 190.400 20.000 190.200 20.000 190.400 V 210.000 C 20.000 210.200 20.200 210.000 20.000 210.000 H 10.200 C 10.090 210.000 10.000 210.090 10.000 210.200 V 230.200 C 10.000 230.310 10.090 230.400 10.200 230.400 H 20.000 C 20.200 230.400 20.000 230.200 20.000 230.400 V 250.000 C 20.000 250.200 20.200 250.000 20.000 250.000 H 10.200 C 10.090 250.000 10.000 250.090 10.000 250.200 V 270.200 C 10.000 270.310 10.090 270.400 10.200 270.400 H 20.000 C 20.200 270.400 20.000 270.200 20.000 270.400 V 300.200 C 20.000 300.310 20.090 300.400 20.200 300.400 Z" stroke="rgb(0,0,0)" stroke-width="0.40" />
</g>
</svg>